<svg class="O9T88b" viewBox="0 0 9 10" xmlns="http://www.w3.org/2000/svg"><path d="M8.135 4.41001L7.11 3.85501L6.37 4.59501L7.13 5.00501L1 8.32001V1.68001L3.62 3.10001L4.36 2.36001L1.095 0.59501C0.99 0.53501 0.875 0.51001 0.765 0.51001C0.37 0.51001 0 0.84001 0 1.25001V8.70001C0 9.11501 0.385 9.48501 0.785 9.48501C0.89 9.48501 0.995 9.46001 1.095 9.40501L8.14 5.59501C8.62 5.32501 8.62 4.67501 8.135 4.41001ZM2.205 3.74001L1.505 4.44001L3.305 6.24001L7.835 1.71001L7.125 1.01001L3.3 4.83501L2.205 3.74001Z" fill="#5F6368"/></svg>