<svg xmlns="http://www.w3.org/2000/svg" width="18" height="23" viewBox="0 0 18 23"><path fill-rule="evenodd" clip-rule="evenodd" d="M2 5.50738L9 2.78516L16 5.50738V10.1392C16 15.4627 12.9204 19.1162 9 20.5337C5.0796 19.1162 2 15.4627 2 10.1392L2 5.50738ZM9.72489 0.921147C9.25864 0.739826 8.74136 0.739826 8.27511 0.921147L1.27511 3.64337C0.506363 3.94233 0 4.68255 0 5.50738V10.1392C0 16.39 3.69914 20.7912 8.42945 22.4535C8.79869 22.5833 9.2013 22.5833 9.57055 22.4535C14.3009 20.7912 18 16.39 18 10.1392V5.50738C18 4.68255 17.4936 3.94232 16.7249 3.64337L9.72489 0.921147ZM6.5 6.63922C5.39543 6.63922 4.5 7.53465 4.5 8.63922C4.5 9.74379 5.39543 10.6392 6.5 10.6392H11.5C12.6046 10.6392 13.5 9.74379 13.5 8.63922C13.5 7.53465 12.6046 6.63922 11.5 6.63922H6.5ZM11.5 9.88922C12.1904 9.88922 12.75 9.32958 12.75 8.63922C12.75 7.94887 12.1904 7.38922 11.5 7.38922C10.8096 7.38922 10.25 7.94887 10.25 8.63922C10.25 9.32958 10.8096 9.88922 11.5 9.88922ZM6.5 11.6392C5.39543 11.6392 4.5 12.5347 4.5 13.6392C4.5 14.7438 5.39543 15.6392 6.5 15.6392H11.5C12.6046 15.6392 13.5 14.7438 13.5 13.6392C13.5 12.5347 12.6046 11.6392 11.5 11.6392H6.5ZM6.5 14.8892C7.19036 14.8892 7.75 14.3296 7.75 13.6392C7.75 12.9489 7.19036 12.3892 6.5 12.3892C5.80964 12.3892 5.25 12.9489 5.25 13.6392C5.25 14.3296 5.80964 14.8892 6.5 14.8892Z"/></svg>